<svg width="21" height="20" viewBox="0 0 21 20" fill="none" xmlns="http://www.w3.org/2000/svg">
<g id="google">
<path id="vector" d="M19.0009 10.1941C19.0009 9.47471 18.9413 8.94971 18.8124 8.40527H10.4294V11.6525H15.35C15.2509 12.4594 14.7152 13.6747 13.5247 14.4913L13.508 14.6L16.1585 16.6123L16.3421 16.6303C18.0286 15.1039 19.0009 12.858 19.0009 10.1941Z" fill="#4285F4"/>
<path id="vector_2" d="M10.4289 18.75C12.8396 18.75 14.8634 17.9722 16.3416 16.6305L13.5241 14.4916C12.7702 15.0068 11.7583 15.3666 10.4289 15.3666C8.06785 15.3666 6.06391 13.8402 5.34956 11.7305L5.24485 11.7392L2.4888 13.8295L2.45276 13.9277C3.92099 16.786 6.93686 18.75 10.4289 18.75Z" fill="#34A853"/>
<path id="vector_3" d="M5.35002 11.7307C5.16153 11.1863 5.05245 10.6029 5.05245 10.0002C5.05245 9.39735 5.16153 8.81403 5.3401 8.2696L5.33511 8.15365L2.54451 6.02979L2.45321 6.07235C1.84808 7.25847 1.50085 8.59044 1.50085 10.0002C1.50085 11.4099 1.84808 12.7418 2.45321 13.9279L5.35002 11.7307Z" fill="#FBBC05"/>
<path id="vector_4" d="M10.429 4.63331C12.1055 4.63331 13.2365 5.34303 13.8813 5.93613L16.4012 3.525C14.8536 2.11528 12.8397 1.25 10.429 1.25C6.93689 1.25 3.921 3.21387 2.45276 6.07218L5.33966 8.26944C6.06393 6.15972 8.06789 4.63331 10.429 4.63331Z" fill="#EB4335"/>
</g>
</svg>
